/vscmnt/brussel_pixiu_data/_data_brussel/112/vsc11236/PredSimResults/SUBJ04opt3D/worker_13.mot
version=1
nRows=10
nColumns=50
inDegrees=yes
endheader
                time	         pelvis_tilt	         pelvis_list	     pelvis_rotation	           pelvis_tx	           pelvis_ty	           pelvis_tz	       hip_flexion_r	     hip_adduction_r	      hip_rotation_r	        knee_angle_r	       ankle_angle_r	         mtp_angle_r	       hip_flexion_l	     hip_adduction_l	      hip_rotation_l	        knee_angle_l	       ankle_angle_l	         mtp_angle_l	    lumbar_extension	      lumbar_bending	     lumbar_rotation	 ercspn_r/activation	 intobl_r/activation	 extobl_r/activation	    abd_r/activation	    add_r/activation	hamstrings_r/activation	bifemsh_r/activation	glut_max_r/activation	iliopsoas_r/activation	rect_fem_r/activation	  vasti_r/activation	gastroc_r/activation	 soleus_r/activation	tib_ant_r/activation	 ercspn_l/activation	 intobl_l/activation	 extobl_l/activation	    abd_l/activation	    add_l/activation	hamstrings_l/activation	bifemsh_l/activation	glut_max_l/activation	iliopsoas_l/activation	rect_fem_l/activation	  vasti_l/activation	gastroc_l/activation	 soleus_l/activation	tib_ant_l/activation	
          1.00000001	        -17.65862051	          6.01857948	         -9.97796247	          1.80000002	          0.84808268	          0.02227637	          1.61662789	         -4.42800370	          8.27596287	        -19.35411360	          4.76295120	         42.41381641	         45.43119266	         -1.09946188	          3.91890991	        -14.27687660	          0.64625052	          0.21177657	         -1.27860867	         -3.03855572	          1.50918453	          0.21005420	          0.29886320	          0.00999999	          0.09265931	          0.03160491	          0.09988715	          0.42417720	          0.05244668	          0.55360774	          0.01386351	          0.00999999	          0.28895998	          0.29028163	          0.02580676	          0.25036124	          0.04904362	          0.00999999	          0.02590819	          0.25920464	          0.08838007	          0.27744478	          0.09611264	          0.11899077	          0.04213988	          0.01138225	          0.10359397	          0.01333332	          0.38908952	
          1.02000001	        -17.18598075	          5.69683537	        -10.49477597	          1.84553868	          0.84568833	          0.02036451	          1.50261987	         -4.43935147	          7.16823002	        -24.76859994	          1.05698321	         44.66841449	         45.40189016	         -0.39118273	          4.48291402	        -20.82869859	          1.56003236	          0.16843495	         -0.67927737	         -2.74729262	          1.40310303	          0.22629212	          0.22414740	          0.00999999	          0.06949448	          0.02370368	          0.07491536	          0.31813290	          0.03933501	          0.69897766	          0.01039764	          0.00999999	          0.21671998	          0.21771122	          0.01935507	          0.18777093	          0.03678271	          0.00999999	          0.13330836	          0.34859530	          0.08606984	          0.20808358	          0.16718830	          0.08924308	          0.03160491	          0.00999999	          0.07769548	          0.00999999	          0.37251445	
          1.04000001	        -16.62337130	          5.40011008	        -10.97970040	          1.89054820	          0.84364470	          0.01790999	          3.23403574	         -4.51768591	          5.80325909	        -33.20787074	         -3.31936324	         43.95445558	         45.26494582	          0.43077246	          5.01520727	        -27.45912008	          3.73152325	          0.69879996	         -0.23689538	         -2.36165953	          1.05004126	          0.36258282	          0.16811055	          0.00999999	          0.05212086	          0.01777776	          0.05618652	          0.23859967	          0.02950125	          0.68422542	          0.00999999	          0.00999999	          0.16253999	          0.16328341	          0.01451630	          0.17372719	          0.02758703	          0.00999999	          0.30005056	          0.39784367	          0.06455238	          0.15606269	          0.56244855	          0.06693231	          0.02370368	          0.09593833	          0.05827161	          0.16642158	          0.27938584	
          1.06000001	        -15.98862030	          5.03304908	        -11.39661117	          1.93414517	          0.84336008	          0.01521877	          6.53563258	         -4.88216031	          3.52062101	        -43.13719032	        -10.01403758	         40.05778879	         44.52412351	          1.11485534	          5.19885679	        -33.25435089	          7.42608182	          3.41798547	         -0.03781299	         -1.82856433	          0.51240811	          0.32169495	          0.12608291	          0.00999999	          0.03909065	          0.01333332	          0.04213989	          0.18079150	          0.02212594	          0.51316906	          0.22710081	          0.00999999	          0.12190499	          0.12246256	          0.01088723	          0.13029539	          0.02069028	          0.00999999	          0.44817595	          0.29838275	          0.09997887	          0.11704701	          0.42183641	          0.05019923	          0.01777776	          0.31138614	          0.13338678	          0.32713164	          0.20953938	
          1.08000001	        -15.40872841	          4.61149165	        -11.76543504	          1.97599421	          0.84599057	          0.01252750	         10.72075987	         -5.89164511	          0.50411256	        -52.06422380	        -19.42214498	         32.80651204	         42.27738311	          1.62201900	          5.37299720	        -35.91770942	          9.86634942	          7.05089504	          0.00940204	         -1.17071270	         -0.10226161	          0.32668825	          0.15115170	          0.21914765	          0.02931798	          0.00999999	          0.03160492	          0.37705561	          0.01659446	          0.38487680	          0.42287807	          0.00999999	          0.09142874	          0.09184692	          0.03357869	          0.09772154	          0.01551771	          0.00999999	          0.48406583	          0.22378706	          0.10570404	          0.08778526	          0.31637731	          0.03764942	          0.01333332	          0.54716475	          0.21215105	          0.45323979	          0.15715453	
          1.10000001	        -14.90920894	          4.14431086	        -12.07890969	          2.01558993	          0.85236418	          0.00993243	         15.16068397	         -7.34091104	         -2.77487882	        -58.81113634	        -26.41436463	         25.33233595	         38.81932968	          1.91890878	          5.45201845	        -35.79816792	         10.97805209	         10.91935211	         -0.17350242	         -0.39349711	         -0.71405303	          0.28259882	          0.21218040	          0.19219098	          0.02198849	          0.00999999	          0.02370369	          0.55818775	          0.01244584	          0.28865760	          0.48707942	          0.00999999	          0.07096160	          0.06888519	          0.05525762	          0.07329116	          0.01163828	          0.00999999	          0.42310549	          0.16784030	          0.11971027	          0.06583895	          0.26288635	          0.02823707	          0.00999999	          0.41037356	          0.29291509	          0.53214987	          0.11786590	
          1.12000001	        -14.46827961	          3.47504506	        -12.40277135	          2.05287932	          0.86197726	          0.00737356	         19.71038589	         -8.75947991	         -6.10540060	        -63.77064335	        -28.41741289	         19.56375613	         35.04154094	          1.92647755	          5.56479791	        -34.48205078	         10.51073483	         14.87035753	         -0.66837592	          0.70140272	         -1.22992515	          0.30475678	          0.30378421	          0.14414324	          0.01649137	          0.00999999	          0.01777777	          0.68886654	          0.00999999	          0.21649320	          0.43472960	          0.00999999	          0.11938816	          0.05166389	          0.15719536	          0.05496837	          0.00999999	          0.00999999	          0.32782046	          0.12588022	          0.12128516	          0.04937921	          0.19716476	          0.02117780	          0.00999999	          0.30778017	          0.35315209	          0.53542185	          0.08839942	
          1.14000001	        -14.03085957	          2.56628186	        -12.81576265	          2.08850739	          0.87376162	          0.00477526	         24.27295347	         -9.93983457	         -9.39350165	        -67.21452096	        -28.56626534	         15.10640945	         31.20249754	          1.60794194	          5.52197439	        -32.63852210	          8.67616228	         18.99541261	         -1.45581696	          2.18484486	         -1.55487724	          0.34131107	          0.31775009	          0.13784314	          0.01236852	          0.00999999	          0.01333332	          0.79196193	          0.00999999	          0.18616665	          0.32770684	          0.00999999	          0.12309612	          0.03874792	          0.17659688	          0.04122628	          0.00999999	          0.00999999	          0.25532597	          0.09441017	          0.09096387	          0.03703441	          0.14787357	          0.01588335	          0.00999999	          0.23083513	          0.38911488	          0.49224650	          0.06629957	
          1.16000001	        -13.55031578	          1.43827788	        -13.29762826	          2.12320834	          0.88689593	          0.00201393	         28.62648990	        -10.80829574	        -12.65471438	        -69.39312082	        -28.15251432	         11.65158897	         27.43948975	          1.03721271	          5.19187264	        -30.71669088	          5.79535370	         23.23746738	         -2.48744815	          4.04443340	         -1.65000992	          0.37157424	          0.31209226	          0.11838751	          0.00999999	          0.01253870	          0.00999999	          0.74804770	          0.00999999	          0.16995668	          0.24578013	          0.00999999	          0.12144611	          0.02906094	          0.15747503	          0.03091971	          0.00999999	          0.00999999	          0.19149448	          0.07080762	          0.06822290	          0.02777580	          0.11090518	          0.01191251	          0.00999999	          0.17312634	          0.39641767	          0.37550032	          0.04972468	
          1.18000001	        -13.00750988	          0.08820550	        -13.83530995	          2.15767746	          0.90060432	         -0.00087551	         32.48210348	        -11.27186017	        -15.89796566	        -70.31350520	        -27.90219410	          8.99556577	         23.85572164	          0.26230247	          4.59440506	        -29.13255611	          2.38276033	         27.24223860	         -3.69788658	          6.26512220	         -1.46269951	          0.29984940	          0.23406920	          0.08879063	          0.00999999	          0.03295263	          0.00999999	          0.59487758	          0.00999999	          0.18006737	          0.18433510	          0.00999999	          0.13136976	          0.02179570	          0.11810627	          0.02318978	          0.00999999	          0.00999999	          0.14362086	          0.05310572	          0.05116718	          0.58333250	          0.08317888	          0.03733703	          0.01333332	          0.12984476	          0.35288463	          0.28162524	          0.03729351	
